<svg width="508" height="538" viewBox="0 0 508 538" fill="none" xmlns="http://www.w3.org/2000/svg">
<rect x="88.5" width="331" height="538" fill="white"/>
<path d="M106.193 76.802H326.388C331.911 76.802 336.388 81.2792 336.388 86.802V141.092C336.388 146.615 331.911 151.092 326.388 151.092H116.193C110.67 151.092 106.193 146.615 106.193 141.092V76.802Z" fill="#0C1B4D" fill-opacity="0.05"/>
<rect x="125.027" y="96.6824" width="193.573" height="10.4634" fill="#0C1B4D" fill-opacity="0.15"/>
<rect x="125.027" y="117.609" width="114.051" height="10.4634" fill="#0C1B4D" fill-opacity="0.15"/>
<path d="M259.831 159.724L253.596 165.959L250.762 163.125" stroke="#4A72FF" stroke-width="2" stroke-linecap="round" stroke-linejoin="round"/>
<path d="M272.728 166.324V160.464H270.748V159.764H275.548V160.464H273.568V166.324H272.728ZM277.876 166.444C277.576 166.444 277.289 166.387 277.016 166.274C276.749 166.16 276.512 165.997 276.306 165.784C276.099 165.564 275.932 165.297 275.806 164.984C275.686 164.664 275.626 164.304 275.626 163.904C275.626 163.497 275.686 163.137 275.806 162.824C275.932 162.504 276.099 162.234 276.306 162.014C276.512 161.794 276.749 161.627 277.016 161.514C277.289 161.4 277.576 161.344 277.876 161.344C278.176 161.344 278.459 161.4 278.726 161.514C278.999 161.627 279.239 161.794 279.446 162.014C279.652 162.234 279.816 162.504 279.936 162.824C280.062 163.137 280.126 163.497 280.126 163.904C280.126 164.304 280.062 164.664 279.936 164.984C279.816 165.297 279.652 165.564 279.446 165.784C279.239 165.997 278.999 166.16 278.726 166.274C278.459 166.387 278.176 166.444 277.876 166.444ZM277.876 165.764C278.082 165.764 278.272 165.72 278.446 165.634C278.619 165.54 278.766 165.414 278.886 165.254C279.012 165.087 279.109 164.89 279.176 164.664C279.242 164.437 279.276 164.184 279.276 163.904C279.276 163.624 279.242 163.37 279.176 163.144C279.109 162.91 279.012 162.71 278.886 162.544C278.766 162.377 278.619 162.25 278.446 162.164C278.272 162.07 278.082 162.024 277.876 162.024C277.669 162.024 277.479 162.07 277.306 162.164C277.132 162.25 276.982 162.377 276.856 162.544C276.736 162.71 276.642 162.91 276.576 163.144C276.509 163.37 276.476 163.624 276.476 163.904C276.476 164.184 276.509 164.437 276.576 164.664C276.642 164.89 276.736 165.087 276.856 165.254C276.982 165.414 277.132 165.54 277.306 165.634C277.479 165.72 277.669 165.764 277.876 165.764ZM283.066 166.444C282.452 166.444 281.962 166.224 281.596 165.784C281.236 165.344 281.056 164.717 281.056 163.904C281.056 163.51 281.112 163.157 281.226 162.844C281.346 162.524 281.502 162.254 281.696 162.034C281.889 161.814 282.112 161.644 282.366 161.524C282.619 161.404 282.886 161.344 283.166 161.344C283.446 161.344 283.689 161.394 283.896 161.494C284.102 161.594 284.312 161.73 284.526 161.904L284.486 161.074V159.204H285.316V166.324H284.636L284.566 165.754H284.536C284.342 165.94 284.119 166.104 283.866 166.244C283.619 166.377 283.352 166.444 283.066 166.444ZM283.246 165.754C283.472 165.754 283.686 165.7 283.886 165.594C284.086 165.48 284.286 165.31 284.486 165.084V162.544C284.279 162.357 284.079 162.227 283.886 162.154C283.699 162.074 283.506 162.034 283.306 162.034C283.112 162.034 282.929 162.08 282.756 162.174C282.589 162.26 282.442 162.387 282.316 162.554C282.189 162.714 282.089 162.907 282.016 163.134C281.942 163.36 281.906 163.614 281.906 163.894C281.906 164.48 282.022 164.937 282.256 165.264C282.489 165.59 282.819 165.754 283.246 165.754ZM288.072 166.444C287.666 166.444 287.326 166.324 287.052 166.084C286.786 165.844 286.652 165.504 286.652 165.064C286.652 164.53 286.889 164.124 287.362 163.844C287.836 163.557 288.592 163.357 289.632 163.244C289.632 163.09 289.616 162.94 289.582 162.794C289.556 162.647 289.506 162.517 289.432 162.404C289.359 162.29 289.256 162.2 289.122 162.134C288.996 162.06 288.832 162.024 288.632 162.024C288.352 162.024 288.089 162.077 287.842 162.184C287.596 162.29 287.376 162.41 287.182 162.544L286.862 161.974C287.089 161.827 287.366 161.687 287.692 161.554C288.019 161.414 288.379 161.344 288.772 161.344C289.366 161.344 289.796 161.527 290.062 161.894C290.329 162.254 290.462 162.737 290.462 163.344V166.324H289.782L289.712 165.744H289.682C289.449 165.937 289.199 166.104 288.932 166.244C288.666 166.377 288.379 166.444 288.072 166.444ZM288.312 165.784C288.546 165.784 288.766 165.73 288.972 165.624C289.179 165.51 289.399 165.347 289.632 165.134V163.784C289.226 163.837 288.882 163.9 288.602 163.974C288.329 164.047 288.106 164.134 287.932 164.234C287.766 164.334 287.642 164.45 287.562 164.584C287.489 164.71 287.452 164.85 287.452 165.004C287.452 165.284 287.536 165.484 287.702 165.604C287.869 165.724 288.072 165.784 288.312 165.784ZM292.072 168.414C291.958 168.414 291.855 168.404 291.762 168.384C291.668 168.37 291.582 168.347 291.502 168.314L291.662 167.664C291.715 167.677 291.775 167.69 291.842 167.704C291.908 167.724 291.972 167.734 292.032 167.734C292.312 167.734 292.538 167.634 292.712 167.434C292.892 167.24 293.032 166.994 293.132 166.694L293.242 166.334L291.292 161.464H292.142L293.132 164.154C293.205 164.367 293.282 164.594 293.362 164.834C293.448 165.067 293.528 165.297 293.602 165.524H293.642C293.715 165.304 293.785 165.074 293.852 164.834C293.918 164.594 293.985 164.367 294.052 164.154L294.922 161.464H295.722L293.892 166.724C293.805 166.964 293.708 167.187 293.602 167.394C293.495 167.6 293.368 167.777 293.222 167.924C293.075 168.077 292.908 168.197 292.722 168.284C292.535 168.37 292.318 168.414 292.072 168.414ZM296.158 168.024L295.958 167.544C296.245 167.417 296.468 167.247 296.628 167.034C296.788 166.827 296.865 166.59 296.858 166.324C296.838 166.33 296.805 166.334 296.758 166.334C296.598 166.334 296.458 166.287 296.338 166.194C296.225 166.094 296.168 165.95 296.168 165.764C296.168 165.584 296.228 165.444 296.348 165.344C296.468 165.237 296.611 165.184 296.778 165.184C296.991 165.184 297.158 165.27 297.278 165.444C297.405 165.617 297.468 165.854 297.468 166.154C297.468 166.587 297.351 166.964 297.118 167.284C296.885 167.604 296.565 167.85 296.158 168.024ZM301.92 166.444C301.513 166.444 301.173 166.324 300.9 166.084C300.633 165.844 300.5 165.504 300.5 165.064C300.5 164.53 300.737 164.124 301.21 163.844C301.683 163.557 302.44 163.357 303.48 163.244C303.48 163.09 303.463 162.94 303.43 162.794C303.403 162.647 303.353 162.517 303.28 162.404C303.207 162.29 303.103 162.2 302.97 162.134C302.843 162.06 302.68 162.024 302.48 162.024C302.2 162.024 301.937 162.077 301.69 162.184C301.443 162.29 301.223 162.41 301.03 162.544L300.71 161.974C300.937 161.827 301.213 161.687 301.54 161.554C301.867 161.414 302.227 161.344 302.62 161.344C303.213 161.344 303.643 161.527 303.91 161.894C304.177 162.254 304.31 162.737 304.31 163.344V166.324H303.63L303.56 165.744H303.53C303.297 165.937 303.047 166.104 302.78 166.244C302.513 166.377 302.227 166.444 301.92 166.444ZM302.16 165.784C302.393 165.784 302.613 165.73 302.82 165.624C303.027 165.51 303.247 165.347 303.48 165.134V163.784C303.073 163.837 302.73 163.9 302.45 163.974C302.177 164.047 301.953 164.134 301.78 164.234C301.613 164.334 301.49 164.45 301.41 164.584C301.337 164.71 301.3 164.85 301.3 165.004C301.3 165.284 301.383 165.484 301.55 165.604C301.717 165.724 301.92 165.784 302.16 165.784ZM307.232 166.444C306.972 166.444 306.752 166.404 306.572 166.324C306.399 166.244 306.256 166.134 306.142 165.994C306.036 165.854 305.959 165.684 305.912 165.484C305.866 165.284 305.842 165.064 305.842 164.824V162.134H305.122V161.514L305.882 161.464L305.982 160.104H306.672V161.464H307.982V162.134H306.672V164.834C306.672 165.134 306.726 165.367 306.832 165.534C306.946 165.694 307.142 165.774 307.422 165.774C307.509 165.774 307.602 165.76 307.702 165.734C307.802 165.707 307.892 165.677 307.972 165.644L308.132 166.264C307.999 166.31 307.852 166.35 307.692 166.384C307.539 166.424 307.386 166.444 307.232 166.444ZM311.053 166.324V165.644H312.513V160.944H311.353V160.414C311.647 160.36 311.9 160.297 312.113 160.224C312.333 160.144 312.53 160.05 312.703 159.944H313.333V165.644H314.653V166.324H311.053ZM317.574 166.444C317.321 166.444 317.087 166.417 316.874 166.364C316.667 166.317 316.477 166.254 316.304 166.174C316.137 166.094 315.984 166.004 315.844 165.904C315.711 165.797 315.591 165.687 315.484 165.574L315.884 165.034C316.071 165.227 316.291 165.397 316.544 165.544C316.804 165.69 317.121 165.764 317.494 165.764C317.687 165.764 317.867 165.73 318.034 165.664C318.207 165.59 318.357 165.49 318.484 165.364C318.611 165.237 318.711 165.084 318.784 164.904C318.857 164.724 318.894 164.524 318.894 164.304C318.894 163.864 318.771 163.52 318.524 163.274C318.277 163.027 317.947 162.904 317.534 162.904C317.314 162.904 317.124 162.937 316.964 163.004C316.811 163.07 316.637 163.167 316.444 163.294L316.004 163.014L316.214 159.944H319.404V160.654H316.934L316.764 162.544C316.917 162.464 317.071 162.4 317.224 162.354C317.377 162.307 317.551 162.284 317.744 162.284C318.017 162.284 318.274 162.324 318.514 162.404C318.754 162.484 318.964 162.607 319.144 162.774C319.324 162.934 319.464 163.14 319.564 163.394C319.671 163.64 319.724 163.937 319.724 164.284C319.724 164.63 319.664 164.937 319.544 165.204C319.424 165.47 319.264 165.697 319.064 165.884C318.864 166.064 318.634 166.204 318.374 166.304C318.121 166.397 317.854 166.444 317.574 166.444ZM321.455 162.834C321.288 162.834 321.145 162.777 321.025 162.664C320.911 162.544 320.855 162.394 320.855 162.214C320.855 162.02 320.911 161.867 321.025 161.754C321.145 161.634 321.288 161.574 321.455 161.574C321.615 161.574 321.751 161.634 321.865 161.754C321.985 161.867 322.045 162.02 322.045 162.214C322.045 162.394 321.985 162.544 321.865 162.664C321.751 162.777 321.615 162.834 321.455 162.834ZM321.455 166.444C321.288 166.444 321.145 166.387 321.025 166.274C320.911 166.154 320.855 166.004 320.855 165.824C320.855 165.63 320.911 165.477 321.025 165.364C321.145 165.244 321.288 165.184 321.455 165.184C321.615 165.184 321.751 165.244 321.865 165.364C321.985 165.477 322.045 165.63 322.045 165.824C322.045 166.004 321.985 166.154 321.865 166.274C321.751 166.387 321.615 166.444 321.455 166.444ZM325.055 166.444C324.802 166.444 324.568 166.417 324.355 166.364C324.148 166.317 323.958 166.254 323.785 166.174C323.612 166.087 323.455 165.99 323.315 165.884C323.182 165.777 323.062 165.664 322.955 165.544L323.375 165.004C323.568 165.204 323.792 165.38 324.045 165.534C324.305 165.687 324.625 165.764 325.005 165.764C325.392 165.764 325.708 165.66 325.955 165.454C326.202 165.24 326.325 164.954 326.325 164.594C326.325 164.407 326.288 164.237 326.215 164.084C326.148 163.924 326.035 163.787 325.875 163.674C325.715 163.56 325.505 163.474 325.245 163.414C324.985 163.354 324.665 163.324 324.285 163.324V162.694C324.625 162.694 324.908 162.664 325.135 162.604C325.368 162.544 325.555 162.46 325.695 162.354C325.842 162.247 325.945 162.12 326.005 161.974C326.065 161.827 326.095 161.67 326.095 161.504C326.095 161.19 325.995 160.944 325.795 160.764C325.602 160.584 325.335 160.494 324.995 160.494C324.728 160.494 324.482 160.554 324.255 160.674C324.035 160.794 323.828 160.95 323.635 161.144L323.195 160.624C323.442 160.39 323.712 160.2 324.005 160.054C324.305 159.9 324.645 159.824 325.025 159.824C325.305 159.824 325.562 159.86 325.795 159.934C326.028 160.007 326.228 160.114 326.395 160.254C326.568 160.387 326.702 160.554 326.795 160.754C326.888 160.954 326.935 161.184 326.935 161.444C326.935 161.83 326.828 162.147 326.615 162.394C326.402 162.64 326.122 162.83 325.775 162.964V163.004C325.968 163.05 326.148 163.12 326.315 163.214C326.482 163.3 326.628 163.414 326.755 163.554C326.882 163.687 326.978 163.844 327.045 164.024C327.118 164.204 327.155 164.404 327.155 164.624C327.155 164.904 327.098 165.157 326.985 165.384C326.878 165.61 326.728 165.804 326.535 165.964C326.348 166.117 326.128 166.237 325.875 166.324C325.622 166.404 325.348 166.444 325.055 166.444ZM330.156 166.444C329.509 166.444 329.006 166.157 328.646 165.584C328.286 165.01 328.106 164.187 328.106 163.114C328.106 162.04 328.286 161.224 328.646 160.664C329.006 160.104 329.509 159.824 330.156 159.824C330.796 159.824 331.296 160.104 331.656 160.664C332.016 161.224 332.196 162.04 332.196 163.114C332.196 164.187 332.016 165.01 331.656 165.584C331.296 166.157 330.796 166.444 330.156 166.444ZM330.156 165.784C330.342 165.784 330.509 165.734 330.656 165.634C330.809 165.527 330.939 165.367 331.046 165.154C331.159 164.934 331.246 164.657 331.306 164.324C331.366 163.984 331.396 163.58 331.396 163.114C331.396 162.647 331.366 162.247 331.306 161.914C331.246 161.58 331.159 161.31 331.046 161.104C330.939 160.89 330.809 160.734 330.656 160.634C330.509 160.534 330.342 160.484 330.156 160.484C329.969 160.484 329.799 160.534 329.646 160.634C329.492 160.734 329.359 160.89 329.246 161.104C329.139 161.31 329.056 161.58 328.996 161.914C328.936 162.247 328.906 162.647 328.906 163.114C328.906 164.047 329.019 164.727 329.246 165.154C329.479 165.574 329.782 165.784 330.156 165.784Z" fill="black" fill-opacity="0.6"/>
<path d="M106.193 336.294H326.388C331.911 336.294 336.388 340.771 336.388 346.294V425.696C336.388 431.219 331.911 435.696 326.388 435.696H116.193C110.67 435.696 106.193 431.219 106.193 425.696V336.294Z" fill="#0C1B4D" fill-opacity="0.05"/>
<path d="M125.027 356.174H313.368C316.258 356.174 318.6 358.517 318.6 361.406C318.6 364.295 316.258 366.638 313.368 366.638H125.027V356.174Z" fill="#0C1B4D" fill-opacity="0.15"/>
<path d="M125.027 377.101H313.368C316.258 377.101 318.6 379.444 318.6 382.333C318.6 385.222 316.258 387.565 313.368 387.565H125.027V377.101Z" fill="#0C1B4D" fill-opacity="0.15"/>
<path d="M125.027 398.028H230.708C233.597 398.028 235.939 400.37 235.939 403.26C235.939 406.149 233.597 408.491 230.708 408.491H125.027V398.028Z" fill="#0C1B4D" fill-opacity="0.15"/>
<path d="M259.831 445.375L253.596 451.609L250.762 448.775" stroke="#4A72FF" stroke-width="2" stroke-linecap="round" stroke-linejoin="round"/>
<path d="M272.728 451.974V446.114H270.748V445.414H275.548V446.114H273.568V451.974H272.728ZM277.876 452.094C277.576 452.094 277.289 452.037 277.016 451.924C276.749 451.811 276.512 451.647 276.306 451.434C276.099 451.214 275.932 450.947 275.806 450.634C275.686 450.314 275.626 449.954 275.626 449.554C275.626 449.147 275.686 448.787 275.806 448.474C275.932 448.154 276.099 447.884 276.306 447.664C276.512 447.444 276.749 447.277 277.016 447.164C277.289 447.051 277.576 446.994 277.876 446.994C278.176 446.994 278.459 447.051 278.726 447.164C278.999 447.277 279.239 447.444 279.446 447.664C279.652 447.884 279.816 448.154 279.936 448.474C280.062 448.787 280.126 449.147 280.126 449.554C280.126 449.954 280.062 450.314 279.936 450.634C279.816 450.947 279.652 451.214 279.446 451.434C279.239 451.647 278.999 451.811 278.726 451.924C278.459 452.037 278.176 452.094 277.876 452.094ZM277.876 451.414C278.082 451.414 278.272 451.371 278.446 451.284C278.619 451.191 278.766 451.064 278.886 450.904C279.012 450.737 279.109 450.541 279.176 450.314C279.242 450.087 279.276 449.834 279.276 449.554C279.276 449.274 279.242 449.021 279.176 448.794C279.109 448.561 279.012 448.361 278.886 448.194C278.766 448.027 278.619 447.901 278.446 447.814C278.272 447.721 278.082 447.674 277.876 447.674C277.669 447.674 277.479 447.721 277.306 447.814C277.132 447.901 276.982 448.027 276.856 448.194C276.736 448.361 276.642 448.561 276.576 448.794C276.509 449.021 276.476 449.274 276.476 449.554C276.476 449.834 276.509 450.087 276.576 450.314C276.642 450.541 276.736 450.737 276.856 450.904C276.982 451.064 277.132 451.191 277.306 451.284C277.479 451.371 277.669 451.414 277.876 451.414ZM283.066 452.094C282.452 452.094 281.962 451.874 281.596 451.434C281.236 450.994 281.056 450.367 281.056 449.554C281.056 449.161 281.112 448.807 281.226 448.494C281.346 448.174 281.502 447.904 281.696 447.684C281.889 447.464 282.112 447.294 282.366 447.174C282.619 447.054 282.886 446.994 283.166 446.994C283.446 446.994 283.689 447.044 283.896 447.144C284.102 447.244 284.312 447.381 284.526 447.554L284.486 446.724V444.854H285.316V451.974H284.636L284.566 451.404H284.536C284.342 451.591 284.119 451.754 283.866 451.894C283.619 452.027 283.352 452.094 283.066 452.094ZM283.246 451.404C283.472 451.404 283.686 451.351 283.886 451.244C284.086 451.131 284.286 450.961 284.486 450.734V448.194C284.279 448.007 284.079 447.877 283.886 447.804C283.699 447.724 283.506 447.684 283.306 447.684C283.112 447.684 282.929 447.731 282.756 447.824C282.589 447.911 282.442 448.037 282.316 448.204C282.189 448.364 282.089 448.557 282.016 448.784C281.942 449.011 281.906 449.264 281.906 449.544C281.906 450.131 282.022 450.587 282.256 450.914C282.489 451.241 282.819 451.404 283.246 451.404ZM288.072 452.094C287.666 452.094 287.326 451.974 287.052 451.734C286.786 451.494 286.652 451.154 286.652 450.714C286.652 450.181 286.889 449.774 287.362 449.494C287.836 449.207 288.592 449.007 289.632 448.894C289.632 448.741 289.616 448.591 289.582 448.444C289.556 448.297 289.506 448.167 289.432 448.054C289.359 447.941 289.256 447.851 289.122 447.784C288.996 447.711 288.832 447.674 288.632 447.674C288.352 447.674 288.089 447.727 287.842 447.834C287.596 447.941 287.376 448.061 287.182 448.194L286.862 447.624C287.089 447.477 287.366 447.337 287.692 447.204C288.019 447.064 288.379 446.994 288.772 446.994C289.366 446.994 289.796 447.177 290.062 447.544C290.329 447.904 290.462 448.387 290.462 448.994V451.974H289.782L289.712 451.394H289.682C289.449 451.587 289.199 451.754 288.932 451.894C288.666 452.027 288.379 452.094 288.072 452.094ZM288.312 451.434C288.546 451.434 288.766 451.381 288.972 451.274C289.179 451.161 289.399 450.997 289.632 450.784V449.434C289.226 449.487 288.882 449.551 288.602 449.624C288.329 449.697 288.106 449.784 287.932 449.884C287.766 449.984 287.642 450.101 287.562 450.234C287.489 450.361 287.452 450.501 287.452 450.654C287.452 450.934 287.536 451.134 287.702 451.254C287.869 451.374 288.072 451.434 288.312 451.434ZM292.072 454.064C291.958 454.064 291.855 454.054 291.762 454.034C291.668 454.021 291.582 453.997 291.502 453.964L291.662 453.314C291.715 453.327 291.775 453.341 291.842 453.354C291.908 453.374 291.972 453.384 292.032 453.384C292.312 453.384 292.538 453.284 292.712 453.084C292.892 452.891 293.032 452.644 293.132 452.344L293.242 451.984L291.292 447.114H292.142L293.132 449.804C293.205 450.017 293.282 450.244 293.362 450.484C293.448 450.717 293.528 450.947 293.602 451.174H293.642C293.715 450.954 293.785 450.724 293.852 450.484C293.918 450.244 293.985 450.017 294.052 449.804L294.922 447.114H295.722L293.892 452.374C293.805 452.614 293.708 452.837 293.602 453.044C293.495 453.251 293.368 453.427 293.222 453.574C293.075 453.727 292.908 453.847 292.722 453.934C292.535 454.021 292.318 454.064 292.072 454.064ZM296.158 453.674L295.958 453.194C296.245 453.067 296.468 452.897 296.628 452.684C296.788 452.477 296.865 452.241 296.858 451.974C296.838 451.981 296.805 451.984 296.758 451.984C296.598 451.984 296.458 451.937 296.338 451.844C296.225 451.744 296.168 451.601 296.168 451.414C296.168 451.234 296.228 451.094 296.348 450.994C296.468 450.887 296.611 450.834 296.778 450.834C296.991 450.834 297.158 450.921 297.278 451.094C297.405 451.267 297.468 451.504 297.468 451.804C297.468 452.237 297.351 452.614 297.118 452.934C296.885 453.254 296.565 453.501 296.158 453.674ZM301.92 452.094C301.513 452.094 301.173 451.974 300.9 451.734C300.633 451.494 300.5 451.154 300.5 450.714C300.5 450.181 300.737 449.774 301.21 449.494C301.683 449.207 302.44 449.007 303.48 448.894C303.48 448.741 303.463 448.591 303.43 448.444C303.403 448.297 303.353 448.167 303.28 448.054C303.207 447.941 303.103 447.851 302.97 447.784C302.843 447.711 302.68 447.674 302.48 447.674C302.2 447.674 301.937 447.727 301.69 447.834C301.443 447.941 301.223 448.061 301.03 448.194L300.71 447.624C300.937 447.477 301.213 447.337 301.54 447.204C301.867 447.064 302.227 446.994 302.62 446.994C303.213 446.994 303.643 447.177 303.91 447.544C304.177 447.904 304.31 448.387 304.31 448.994V451.974H303.63L303.56 451.394H303.53C303.297 451.587 303.047 451.754 302.78 451.894C302.513 452.027 302.227 452.094 301.92 452.094ZM302.16 451.434C302.393 451.434 302.613 451.381 302.82 451.274C303.027 451.161 303.247 450.997 303.48 450.784V449.434C303.073 449.487 302.73 449.551 302.45 449.624C302.177 449.697 301.953 449.784 301.78 449.884C301.613 449.984 301.49 450.101 301.41 450.234C301.337 450.361 301.3 450.501 301.3 450.654C301.3 450.934 301.383 451.134 301.55 451.254C301.717 451.374 301.92 451.434 302.16 451.434ZM307.232 452.094C306.972 452.094 306.752 452.054 306.572 451.974C306.399 451.894 306.256 451.784 306.142 451.644C306.036 451.504 305.959 451.334 305.912 451.134C305.866 450.934 305.842 450.714 305.842 450.474V447.784H305.122V447.164L305.882 447.114L305.982 445.754H306.672V447.114H307.982V447.784H306.672V450.484C306.672 450.784 306.726 451.017 306.832 451.184C306.946 451.344 307.142 451.424 307.422 451.424C307.509 451.424 307.602 451.411 307.702 451.384C307.802 451.357 307.892 451.327 307.972 451.294L308.132 451.914C307.999 451.961 307.852 452.001 307.692 452.034C307.539 452.074 307.386 452.094 307.232 452.094ZM311.053 451.974V451.294H312.513V446.594H311.353V446.064C311.647 446.011 311.9 445.947 312.113 445.874C312.333 445.794 312.53 445.701 312.703 445.594H313.333V451.294H314.653V451.974H311.053ZM317.574 452.094C317.321 452.094 317.087 452.067 316.874 452.014C316.667 451.967 316.477 451.904 316.304 451.824C316.137 451.744 315.984 451.654 315.844 451.554C315.711 451.447 315.591 451.337 315.484 451.224L315.884 450.684C316.071 450.877 316.291 451.047 316.544 451.194C316.804 451.341 317.121 451.414 317.494 451.414C317.687 451.414 317.867 451.381 318.034 451.314C318.207 451.241 318.357 451.141 318.484 451.014C318.611 450.887 318.711 450.734 318.784 450.554C318.857 450.374 318.894 450.174 318.894 449.954C318.894 449.514 318.771 449.171 318.524 448.924C318.277 448.677 317.947 448.554 317.534 448.554C317.314 448.554 317.124 448.587 316.964 448.654C316.811 448.721 316.637 448.817 316.444 448.944L316.004 448.664L316.214 445.594H319.404V446.304H316.934L316.764 448.194C316.917 448.114 317.071 448.051 317.224 448.004C317.377 447.957 317.551 447.934 317.744 447.934C318.017 447.934 318.274 447.974 318.514 448.054C318.754 448.134 318.964 448.257 319.144 448.424C319.324 448.584 319.464 448.791 319.564 449.044C319.671 449.291 319.724 449.587 319.724 449.934C319.724 450.281 319.664 450.587 319.544 450.854C319.424 451.121 319.264 451.347 319.064 451.534C318.864 451.714 318.634 451.854 318.374 451.954C318.121 452.047 317.854 452.094 317.574 452.094ZM321.455 448.484C321.288 448.484 321.145 448.427 321.025 448.314C320.911 448.194 320.855 448.044 320.855 447.864C320.855 447.671 320.911 447.517 321.025 447.404C321.145 447.284 321.288 447.224 321.455 447.224C321.615 447.224 321.751 447.284 321.865 447.404C321.985 447.517 322.045 447.671 322.045 447.864C322.045 448.044 321.985 448.194 321.865 448.314C321.751 448.427 321.615 448.484 321.455 448.484ZM321.455 452.094C321.288 452.094 321.145 452.037 321.025 451.924C320.911 451.804 320.855 451.654 320.855 451.474C320.855 451.281 320.911 451.127 321.025 451.014C321.145 450.894 321.288 450.834 321.455 450.834C321.615 450.834 321.751 450.894 321.865 451.014C321.985 451.127 322.045 451.281 322.045 451.474C322.045 451.654 321.985 451.804 321.865 451.924C321.751 452.037 321.615 452.094 321.455 452.094ZM325.035 452.094C324.782 452.094 324.548 452.067 324.335 452.014C324.128 451.967 323.938 451.904 323.765 451.824C323.598 451.744 323.445 451.654 323.305 451.554C323.172 451.447 323.052 451.337 322.945 451.224L323.345 450.684C323.532 450.877 323.752 451.047 324.005 451.194C324.265 451.341 324.582 451.414 324.955 451.414C325.148 451.414 325.328 451.381 325.495 451.314C325.668 451.241 325.818 451.141 325.945 451.014C326.072 450.887 326.172 450.734 326.245 450.554C326.318 450.374 326.355 450.174 326.355 449.954C326.355 449.514 326.232 449.171 325.985 448.924C325.738 448.677 325.408 448.554 324.995 448.554C324.775 448.554 324.585 448.587 324.425 448.654C324.272 448.721 324.098 448.817 323.905 448.944L323.465 448.664L323.675 445.594H326.865V446.304H324.395L324.225 448.194C324.378 448.114 324.532 448.051 324.685 448.004C324.838 447.957 325.012 447.934 325.205 447.934C325.478 447.934 325.735 447.974 325.975 448.054C326.215 448.134 326.425 448.257 326.605 448.424C326.785 448.584 326.925 448.791 327.025 449.044C327.132 449.291 327.185 449.587 327.185 449.934C327.185 450.281 327.125 450.587 327.005 450.854C326.885 451.121 326.725 451.347 326.525 451.534C326.325 451.714 326.095 451.854 325.835 451.954C325.582 452.047 325.315 452.094 325.035 452.094ZM330.156 452.094C329.509 452.094 329.006 451.807 328.646 451.234C328.286 450.661 328.106 449.837 328.106 448.764C328.106 447.691 328.286 446.874 328.646 446.314C329.006 445.754 329.509 445.474 330.156 445.474C330.796 445.474 331.296 445.754 331.656 446.314C332.016 446.874 332.196 447.691 332.196 448.764C332.196 449.837 332.016 450.661 331.656 451.234C331.296 451.807 330.796 452.094 330.156 452.094ZM330.156 451.434C330.342 451.434 330.509 451.384 330.656 451.284C330.809 451.177 330.939 451.017 331.046 450.804C331.159 450.584 331.246 450.307 331.306 449.974C331.366 449.634 331.396 449.231 331.396 448.764C331.396 448.297 331.366 447.897 331.306 447.564C331.246 447.231 331.159 446.961 331.046 446.754C330.939 446.541 330.809 446.384 330.656 446.284C330.509 446.184 330.342 446.134 330.156 446.134C329.969 446.134 329.799 446.184 329.646 446.284C329.492 446.384 329.359 446.541 329.246 446.754C329.139 446.961 329.056 447.231 328.996 447.564C328.936 447.897 328.906 448.297 328.906 448.764C328.906 449.697 329.019 450.377 329.246 450.804C329.479 451.224 329.782 451.434 330.156 451.434Z" fill="black" fill-opacity="0.6"/>
<path d="M171.066 216.548C171.066 211.025 175.543 206.548 181.066 206.548H401.261V270.838C401.261 276.361 396.784 280.838 391.261 280.838H181.066C175.543 280.838 171.066 276.361 171.066 270.838V216.548Z" fill="#4A72FF"/>
<rect x="189.9" y="226.428" width="193.573" height="10.4634" fill="white" fill-opacity="0.25"/>
<rect x="189.9" y="247.355" width="60.6876" height="10.4634" fill="white" fill-opacity="0.25"/>
<path d="M182.402 289.47L176.167 295.705L173.333 292.871" stroke="#4A72FF" stroke-width="2" stroke-linecap="round" stroke-linejoin="round"/>
<path d="M195.299 296.07V290.21H193.319V289.51H198.119V290.21H196.139V296.07H195.299ZM200.447 296.19C200.147 296.19 199.86 296.133 199.587 296.02C199.32 295.906 199.083 295.743 198.877 295.53C198.67 295.31 198.503 295.043 198.377 294.73C198.257 294.41 198.197 294.05 198.197 293.65C198.197 293.243 198.257 292.883 198.377 292.57C198.503 292.25 198.67 291.98 198.877 291.76C199.083 291.54 199.32 291.373 199.587 291.26C199.86 291.146 200.147 291.09 200.447 291.09C200.747 291.09 201.03 291.146 201.297 291.26C201.57 291.373 201.81 291.54 202.017 291.76C202.223 291.98 202.387 292.25 202.507 292.57C202.633 292.883 202.697 293.243 202.697 293.65C202.697 294.05 202.633 294.41 202.507 294.73C202.387 295.043 202.223 295.31 202.017 295.53C201.81 295.743 201.57 295.906 201.297 296.02C201.03 296.133 200.747 296.19 200.447 296.19ZM200.447 295.51C200.653 295.51 200.843 295.466 201.017 295.38C201.19 295.286 201.337 295.16 201.457 295C201.583 294.833 201.68 294.636 201.747 294.41C201.813 294.183 201.847 293.93 201.847 293.65C201.847 293.37 201.813 293.116 201.747 292.89C201.68 292.656 201.583 292.456 201.457 292.29C201.337 292.123 201.19 291.996 201.017 291.91C200.843 291.816 200.653 291.77 200.447 291.77C200.24 291.77 200.05 291.816 199.877 291.91C199.703 291.996 199.553 292.123 199.427 292.29C199.307 292.456 199.213 292.656 199.147 292.89C199.08 293.116 199.047 293.37 199.047 293.65C199.047 293.93 199.08 294.183 199.147 294.41C199.213 294.636 199.307 294.833 199.427 295C199.553 295.16 199.703 295.286 199.877 295.38C200.05 295.466 200.24 295.51 200.447 295.51ZM205.637 296.19C205.023 296.19 204.533 295.97 204.167 295.53C203.807 295.09 203.627 294.463 203.627 293.65C203.627 293.256 203.683 292.903 203.797 292.59C203.917 292.27 204.073 292 204.267 291.78C204.46 291.56 204.683 291.39 204.937 291.27C205.19 291.15 205.457 291.09 205.737 291.09C206.017 291.09 206.26 291.14 206.467 291.24C206.673 291.34 206.883 291.476 207.097 291.65L207.057 290.82V288.95H207.887V296.07H207.207L207.137 295.5H207.107C206.913 295.686 206.69 295.85 206.437 295.99C206.19 296.123 205.923 296.19 205.637 296.19ZM205.817 295.5C206.043 295.5 206.257 295.446 206.457 295.34C206.657 295.226 206.857 295.056 207.057 294.83V292.29C206.85 292.103 206.65 291.973 206.457 291.9C206.27 291.82 206.077 291.78 205.877 291.78C205.683 291.78 205.5 291.826 205.327 291.92C205.16 292.006 205.013 292.133 204.887 292.3C204.76 292.46 204.66 292.653 204.587 292.88C204.513 293.106 204.477 293.36 204.477 293.64C204.477 294.226 204.593 294.683 204.827 295.01C205.06 295.336 205.39 295.5 205.817 295.5ZM210.643 296.19C210.237 296.19 209.897 296.07 209.623 295.83C209.357 295.59 209.223 295.25 209.223 294.81C209.223 294.276 209.46 293.87 209.933 293.59C210.407 293.303 211.163 293.103 212.203 292.99C212.203 292.836 212.187 292.686 212.153 292.54C212.127 292.393 212.077 292.263 212.003 292.15C211.93 292.036 211.827 291.946 211.693 291.88C211.567 291.806 211.403 291.77 211.203 291.77C210.923 291.77 210.66 291.823 210.413 291.93C210.167 292.036 209.947 292.156 209.753 292.29L209.433 291.72C209.66 291.573 209.937 291.433 210.263 291.3C210.59 291.16 210.95 291.09 211.343 291.09C211.937 291.09 212.367 291.273 212.633 291.64C212.9 292 213.033 292.483 213.033 293.09V296.07H212.353L212.283 295.49H212.253C212.02 295.683 211.77 295.85 211.503 295.99C211.237 296.123 210.95 296.19 210.643 296.19ZM210.883 295.53C211.117 295.53 211.337 295.476 211.543 295.37C211.75 295.256 211.97 295.093 212.203 294.88V293.53C211.797 293.583 211.453 293.646 211.173 293.72C210.9 293.793 210.677 293.88 210.503 293.98C210.337 294.08 210.213 294.196 210.133 294.33C210.06 294.456 210.023 294.596 210.023 294.75C210.023 295.03 210.107 295.23 210.273 295.35C210.44 295.47 210.643 295.53 210.883 295.53ZM214.642 298.16C214.529 298.16 214.426 298.15 214.332 298.13C214.239 298.116 214.152 298.093 214.072 298.06L214.232 297.41C214.286 297.423 214.346 297.436 214.412 297.45C214.479 297.47 214.542 297.48 214.602 297.48C214.882 297.48 215.109 297.38 215.282 297.18C215.462 296.986 215.602 296.74 215.702 296.44L215.812 296.08L213.862 291.21H214.712L215.702 293.9C215.776 294.113 215.852 294.34 215.932 294.58C216.019 294.813 216.099 295.043 216.172 295.27H216.212C216.286 295.05 216.356 294.82 216.422 294.58C216.489 294.34 216.556 294.113 216.622 293.9L217.492 291.21H218.292L216.462 296.47C216.376 296.71 216.279 296.933 216.172 297.14C216.066 297.346 215.939 297.523 215.792 297.67C215.646 297.823 215.479 297.943 215.292 298.03C215.106 298.116 214.889 298.16 214.642 298.16ZM218.729 297.77L218.529 297.29C218.816 297.163 219.039 296.993 219.199 296.78C219.359 296.573 219.436 296.336 219.429 296.07C219.409 296.076 219.376 296.08 219.329 296.08C219.169 296.08 219.029 296.033 218.909 295.94C218.796 295.84 218.739 295.696 218.739 295.51C218.739 295.33 218.799 295.19 218.919 295.09C219.039 294.983 219.182 294.93 219.349 294.93C219.562 294.93 219.729 295.016 219.849 295.19C219.976 295.363 220.039 295.6 220.039 295.9C220.039 296.333 219.922 296.71 219.689 297.03C219.456 297.35 219.136 297.596 218.729 297.77ZM224.491 296.19C224.084 296.19 223.744 296.07 223.471 295.83C223.204 295.59 223.071 295.25 223.071 294.81C223.071 294.276 223.308 293.87 223.781 293.59C224.254 293.303 225.011 293.103 226.051 292.99C226.051 292.836 226.034 292.686 226.001 292.54C225.974 292.393 225.924 292.263 225.851 292.15C225.778 292.036 225.674 291.946 225.541 291.88C225.414 291.806 225.251 291.77 225.051 291.77C224.771 291.77 224.508 291.823 224.261 291.93C224.014 292.036 223.794 292.156 223.601 292.29L223.281 291.72C223.508 291.573 223.784 291.433 224.111 291.3C224.438 291.16 224.798 291.09 225.191 291.09C225.784 291.09 226.214 291.273 226.481 291.64C226.748 292 226.881 292.483 226.881 293.09V296.07H226.201L226.131 295.49H226.101C225.868 295.683 225.618 295.85 225.351 295.99C225.084 296.123 224.798 296.19 224.491 296.19ZM224.731 295.53C224.964 295.53 225.184 295.476 225.391 295.37C225.598 295.256 225.818 295.093 226.051 294.88V293.53C225.644 293.583 225.301 293.646 225.021 293.72C224.748 293.793 224.524 293.88 224.351 293.98C224.184 294.08 224.061 294.196 223.981 294.33C223.908 294.456 223.871 294.596 223.871 294.75C223.871 295.03 223.954 295.23 224.121 295.35C224.288 295.47 224.491 295.53 224.731 295.53ZM229.803 296.19C229.543 296.19 229.323 296.15 229.143 296.07C228.97 295.99 228.827 295.88 228.713 295.74C228.607 295.6 228.53 295.43 228.483 295.23C228.437 295.03 228.413 294.81 228.413 294.57V291.88H227.693V291.26L228.453 291.21L228.553 289.85H229.243V291.21H230.553V291.88H229.243V294.58C229.243 294.88 229.297 295.113 229.403 295.28C229.517 295.44 229.713 295.52 229.993 295.52C230.08 295.52 230.173 295.506 230.273 295.48C230.373 295.453 230.463 295.423 230.543 295.39L230.703 296.01C230.57 296.056 230.423 296.096 230.263 296.13C230.11 296.17 229.957 296.19 229.803 296.19ZM233.624 296.07V295.39H235.084V290.69H233.924V290.16C234.218 290.106 234.471 290.043 234.684 289.97C234.904 289.89 235.101 289.796 235.274 289.69H235.904V295.39H237.224V296.07H233.624ZM240.145 296.19C239.892 296.19 239.658 296.163 239.445 296.11C239.238 296.063 239.048 296 238.875 295.92C238.708 295.84 238.555 295.75 238.415 295.65C238.282 295.543 238.162 295.433 238.055 295.32L238.455 294.78C238.642 294.973 238.862 295.143 239.115 295.29C239.375 295.436 239.692 295.51 240.065 295.51C240.258 295.51 240.438 295.476 240.605 295.41C240.778 295.336 240.928 295.236 241.055 295.11C241.182 294.983 241.282 294.83 241.355 294.65C241.428 294.47 241.465 294.27 241.465 294.05C241.465 293.61 241.342 293.266 241.095 293.02C240.848 292.773 240.518 292.65 240.105 292.65C239.885 292.65 239.695 292.683 239.535 292.75C239.382 292.816 239.208 292.913 239.015 293.04L238.575 292.76L238.785 289.69H241.975V290.4H239.505L239.335 292.29C239.488 292.21 239.642 292.146 239.795 292.1C239.948 292.053 240.122 292.03 240.315 292.03C240.588 292.03 240.845 292.07 241.085 292.15C241.325 292.23 241.535 292.353 241.715 292.52C241.895 292.68 242.035 292.886 242.135 293.14C242.242 293.386 242.295 293.683 242.295 294.03C242.295 294.376 242.235 294.683 242.115 294.95C241.995 295.216 241.835 295.443 241.635 295.63C241.435 295.81 241.205 295.95 240.945 296.05C240.692 296.143 240.425 296.19 240.145 296.19ZM244.026 292.58C243.859 292.58 243.716 292.523 243.596 292.41C243.482 292.29 243.426 292.14 243.426 291.96C243.426 291.766 243.482 291.613 243.596 291.5C243.716 291.38 243.859 291.32 244.026 291.32C244.186 291.32 244.322 291.38 244.436 291.5C244.556 291.613 244.616 291.766 244.616 291.96C244.616 292.14 244.556 292.29 244.436 292.41C244.322 292.523 244.186 292.58 244.026 292.58ZM244.026 296.19C243.859 296.19 243.716 296.133 243.596 296.02C243.482 295.9 243.426 295.75 243.426 295.57C243.426 295.376 243.482 295.223 243.596 295.11C243.716 294.99 243.859 294.93 244.026 294.93C244.186 294.93 244.322 294.99 244.436 295.11C244.556 295.223 244.616 295.376 244.616 295.57C244.616 295.75 244.556 295.9 244.436 296.02C244.322 296.133 244.186 296.19 244.026 296.19ZM247.626 296.19C247.373 296.19 247.139 296.163 246.926 296.11C246.719 296.063 246.529 296 246.356 295.92C246.183 295.833 246.026 295.736 245.886 295.63C245.753 295.523 245.633 295.41 245.526 295.29L245.946 294.75C246.139 294.95 246.363 295.126 246.616 295.28C246.876 295.433 247.196 295.51 247.576 295.51C247.963 295.51 248.279 295.406 248.526 295.2C248.773 294.986 248.896 294.7 248.896 294.34C248.896 294.153 248.859 293.983 248.786 293.83C248.719 293.67 248.606 293.533 248.446 293.42C248.286 293.306 248.076 293.22 247.816 293.16C247.556 293.1 247.236 293.07 246.856 293.07V292.44C247.196 292.44 247.479 292.41 247.706 292.35C247.939 292.29 248.126 292.206 248.266 292.1C248.413 291.993 248.516 291.866 248.576 291.72C248.636 291.573 248.666 291.416 248.666 291.25C248.666 290.936 248.566 290.69 248.366 290.51C248.173 290.33 247.906 290.24 247.566 290.24C247.299 290.24 247.053 290.3 246.826 290.42C246.606 290.54 246.399 290.696 246.206 290.89L245.766 290.37C246.013 290.136 246.283 289.946 246.576 289.8C246.876 289.646 247.216 289.57 247.596 289.57C247.876 289.57 248.133 289.606 248.366 289.68C248.599 289.753 248.799 289.86 248.966 290C249.139 290.133 249.273 290.3 249.366 290.5C249.459 290.7 249.506 290.93 249.506 291.19C249.506 291.576 249.399 291.893 249.186 292.14C248.973 292.386 248.693 292.576 248.346 292.71V292.75C248.539 292.796 248.719 292.866 248.886 292.96C249.053 293.046 249.199 293.16 249.326 293.3C249.453 293.433 249.549 293.59 249.616 293.77C249.689 293.95 249.726 294.15 249.726 294.37C249.726 294.65 249.669 294.903 249.556 295.13C249.449 295.356 249.299 295.55 249.106 295.71C248.919 295.863 248.699 295.983 248.446 296.07C248.193 296.15 247.919 296.19 247.626 296.19ZM253.277 296.07V294.31H250.407V293.77L253.137 289.69H254.057V293.65H254.927V294.31H254.057V296.07H253.277ZM251.277 293.65H253.277V291.8C253.277 291.626 253.28 291.423 253.287 291.19C253.3 290.95 253.313 290.743 253.327 290.57H253.287C253.207 290.723 253.123 290.873 253.037 291.02C252.95 291.166 252.86 291.316 252.767 291.47L251.277 293.65Z" fill="black" fill-opacity="0.6"/>
</svg>
